<svg viewBox="0 0 278.66 242.06" xmlns:xlink="http://www.w3.org/1999/xlink" xmlns="http://www.w3.org/2000/svg"><defs><style>.cls-1{opacity:0.51;}.cls-2{fill:url(#未命名的渐变_37);}.cls-3{fill:url(#未命名的渐变_37-2);}.cls-4{opacity:0.46;}.cls-5{fill:#cde9f9;}.cls-6{fill:#fff;}.cls-7{fill:#e7f6fd;}.cls-8{fill:url(#未命名的渐变_37-3);}.cls-9{fill:url(#未命名的渐变_37-4);}.cls-10{fill:url(#未命名的渐变_37-5);}.cls-11{fill:url(#未命名的渐变_37-6);}.cls-12{fill:url(#未命名的渐变_37-7);}.cls-13,.cls-24,.cls-26{fill:#2a2f6d;}.cls-13{opacity:0.2;}.cls-13,.cls-26{isolation:isolate;}.cls-14{fill:#a17194;}.cls-15{fill:url(#未命名的渐变_6);}.cls-16{fill:#8f8fa7;}.cls-17{fill:#09518c;}.cls-18{fill:#222457;}.cls-19{fill:#1d9fda;}.cls-20{fill:#2187c5;}.cls-21{fill:#6e8f99;}.cls-22{fill:#aecfdc;}.cls-23{fill:#fde0d9;}.cls-25{fill:#ecbfb9;}.cls-26{opacity:0.1;}.cls-27{fill:url(#未命名的渐变_9);}.cls-28{fill:url(#未命名的渐变_5);}.cls-29{fill:#3c7fbe;}.cls-30{fill:url(#未命名的渐变_13);}.cls-31{fill:url(#未命名的渐变_13-2);}.cls-32{fill:url(#未命名的渐变_13-3);}.cls-33{fill:url(#未命名的渐变_37-8);}.cls-34{fill:url(#未命名的渐变_25);}.cls-35{fill:url(#未命名的渐变_37-9);}.cls-36{fill:url(#未命名的渐变_25-2);}.cls-37{fill:url(#未命名的渐变_37-10);}</style><linearGradient gradientUnits="userSpaceOnUse" gradientTransform="matrix(1, 0, 0, -1, 0, 1038.96)" y2="977.94" x2="267.47" y1="977.94" x1="187.76" id="未命名的渐变_37"><stop stop-color="#28a8e0" offset="0.06"></stop><stop stop-opacity="0" stop-color="#29abe2" offset="1"></stop></linearGradient><linearGradient xlink:href="#未命名的渐变_37" y2="979.65" x2="278.66" y1="979.65" x1="198.95" id="未命名的渐变_37-2"></linearGradient><linearGradient xlink:href="#未命名的渐变_37" y2="876.96" x2="261.08" y1="876.96" x1="24.21" id="未命名的渐变_37-3"></linearGradient><linearGradient xlink:href="#未命名的渐变_37" gradientTransform="matrix(1, 0, 0, -1, -0.8, 1035.5)" y2="837.33" x2="167.74" y1="837.33" x1="105.14" id="未命名的渐变_37-4"></linearGradient><linearGradient xlink:href="#未命名的渐变_37" y2="918.59" x2="183.29" y1="918.59" x1="128.67" id="未命名的渐变_37-5"></linearGradient><linearGradient xlink:href="#未命名的渐变_37" y2="868.4" x2="223" y1="868.4" x1="155.05" id="未命名的渐变_37-6"></linearGradient><linearGradient xlink:href="#未命名的渐变_37" y2="890.25" x2="129.04" y1="890.25" x1="86.74" id="未命名的渐变_37-7"></linearGradient><linearGradient gradientUnits="userSpaceOnUse" gradientTransform="matrix(1, 0, 0, -1, 0, 1038.96)" y2="885.31" x2="80.1" y1="885.31" x1="60.77" id="未命名的渐变_6"><stop stop-color="#21409a" offset="0.17"></stop><stop stop-opacity="0" stop-color="#29abe2" offset="1"></stop></linearGradient><linearGradient gradientUnits="userSpaceOnUse" gradientTransform="matrix(1, 0, 0, -1, 0, 1038.96)" y2="946.1" x2="263.33" y1="946.1" x1="249.17" id="未命名的渐变_9"><stop stop-color="#6b385f" offset="0.24"></stop><stop stop-opacity="0.73" stop-color="#6f3b62" offset="0.34"></stop><stop stop-opacity="0.6" stop-color="#764268" offset="0.45"></stop><stop stop-opacity="0.39" stop-color="#8c567a" offset="0.65"></stop><stop stop-opacity="0.11" stop-color="#b5799b" offset="0.9"></stop><stop stop-opacity="0" stop-color="#cc8dae" offset="1"></stop></linearGradient><linearGradient gradientUnits="userSpaceOnUse" gradientTransform="matrix(1, 0, 0, -1, 0, 1038.96)" y2="948.9" x2="248.19" y1="948.9" x1="229.25" id="未命名的渐变_5"><stop stop-opacity="0" stop-color="#cc8dae" offset="0"></stop><stop stop-opacity="0.73" stop-color="#6f3b62" offset="0.54"></stop><stop stop-color="#6b385f" offset="1"></stop></linearGradient><linearGradient gradientUnits="userSpaceOnUse" gradientTransform="matrix(1, 0, 0, -1, 0, 1038.96)" y2="940.06" x2="243.34" y1="940.06" x1="231.31" id="未命名的渐变_13"><stop stop-color="#262262" offset="0.24"></stop><stop stop-opacity="0.77" stop-color="#272567" offset="0.42"></stop><stop stop-opacity="0.4" stop-color="#2a2d76" offset="0.71"></stop><stop stop-opacity="0.18" stop-color="#2a3282" offset="0.88"></stop><stop stop-opacity="0" stop-color="#2b3990" offset="1"></stop></linearGradient><linearGradient xlink:href="#未命名的渐变_13" y2="935.93" x2="256.9" y1="935.93" x1="238.21" id="未命名的渐变_13-2"></linearGradient><linearGradient xlink:href="#未命名的渐变_13" y2="941.54" x2="252.41" y1="941.54" x1="239.1" id="未命名的渐变_13-3"></linearGradient><linearGradient xlink:href="#未命名的渐变_37" y2="1012.17" x2="138.66" y1="982.23" x1="161.22" id="未命名的渐变_37-8"></linearGradient><linearGradient gradientUnits="userSpaceOnUse" gradientTransform="matrix(1, 0, 0, -1, 0, 1038.96)" y2="986.89" x2="240.22" y1="986.89" x1="228.82" id="未命名的渐变_25"><stop stop-color="#bd8aae" offset="0"></stop><stop stop-opacity="0" stop-color="#2484c6" offset="1"></stop></linearGradient><linearGradient xlink:href="#未命名的渐变_37" y2="903.29" x2="30.39" y1="903.29" x1="14.8" id="未命名的渐变_37-9"></linearGradient><linearGradient xlink:href="#未命名的渐变_25" y2="970.22" x2="264.77" y1="970.22" x1="259.74" id="未命名的渐变_25-2"></linearGradient><linearGradient xlink:href="#未命名的渐变_37" y2="927.72" x2="34.47" y1="927.72" x1="29.43" id="未命名的渐变_37-10"></linearGradient></defs><g id="图层_2"><g id="图层_1-2"><g id="side_bg"><g class="cls-1"><path d="M187.76,7.9V69.32a6.43,6.43,0,0,0,2.67,5.37l66.79,44.58c4.56,3,10.25-.8,10.25-6.94V57.25a12.12,12.12,0,0,0-5-10.13L195.7,2.53C192.16.17,187.76,3.15,187.76,7.9Z" class="cls-2"></path></g><g class="cls-1"><path d="M199,6.19V67.61A6.43,6.43,0,0,0,201.62,73l66.79,44.58c4.57,3,10.25-.8,10.25-6.94V55.54a12.15,12.15,0,0,0-5-10.13L206.89.83C203.36-1.53,199,1.44,199,6.19Z" class="cls-3"></path></g><g class="cls-4"><path d="M50.11,96.73l-46.17,31C2.19,128.93,0,127.46,0,125.1V108.42a3.16,3.16,0,0,1,1.32-2.65l46.17-31c1.75-1.18,3.94.3,3.94,2.66V94.07A3.18,3.18,0,0,1,50.11,96.73Z" class="cls-5"></path></g><g class="cls-4"><path d="M107.19,71,61,102c-1.75,1.18-3.94-.3-3.94-2.65V82.69A3.18,3.18,0,0,1,58.39,80l46.18-31c1.75-1.18,3.93.29,3.93,2.65V68.34A3.17,3.17,0,0,1,107.19,71Z" class="cls-5"></path></g><g class="cls-4"><path d="M111.51,37.35l-46.18,31c-1.75,1.17-3.94-.3-3.94-2.66V49a3.18,3.18,0,0,1,1.32-2.65l46.18-31c1.75-1.17,3.93.3,3.93,2.66V34.7A3.2,3.2,0,0,1,111.51,37.35Z" class="cls-5"></path></g><path d="M193.48,8.94c0,1.2-.51,1.85-1.15,1.85s-1.15-1-1.15-2.16.52-2.16,1.15-2.16S193.48,7.75,193.48,8.94Z" class="cls-6"></path><path d="M197.84,12.15c0,1.19-.51,1.85-1.15,1.85s-1.15-1-1.15-2.17.52-2.16,1.15-2.16S197.84,11,197.84,12.15Z" class="cls-6"></path><path d="M201.94,15.5c0,1.2-.52,1.85-1.15,1.85s-1.15-1-1.15-2.16.51-2.16,1.15-2.16S201.94,14.31,201.94,15.5Z" class="cls-6"></path></g><g id="shadow"><ellipse ry="9.09" rx="28.65" cy="185.25" cx="44.09" class="cls-7"></ellipse><ellipse ry="9.09" rx="28.65" cy="125.97" cx="239.1" class="cls-7"></ellipse></g><g id="flooring"><path d="M134.5,239.61,17.59,160.85c-4.85-3.27-4.85-11.44,0-14.7L143.26,61.48a6.38,6.38,0,0,1,7.28,0l116.91,78.76c4.85,3.27,4.85,11.43,0,14.7L141.77,239.61A6.37,6.37,0,0,1,134.5,239.61Z" class="cls-7"></path><path d="M138.14,242.06,15.44,159.4l127.64-86a6.68,6.68,0,0,1,7.64,0L269.59,153.5Z" class="cls-5"></path><path d="M133,238.57,24.21,165.3,143.69,84.82a5.65,5.65,0,0,1,6.42,0l111,74.42L143.32,238.57A9.11,9.11,0,0,1,133,238.57Z" class="cls-8"></path></g><g id="convo_bubbles"><path d="M169.65,204.69l-40.59-27.61a1.35,1.35,0,0,0-1.56,0l-18.82,12.56a2,2,0,0,0,0,3.16l8.83,6a2,2,0,0,1-.13,3.24,14,14,0,0,1-5.37,1.57.83.83,0,0,0-.09,1.58c3.32.81,7.53,1,11-1.56a1.4,1.4,0,0,1,1.64,0l24.66,16.77a1.37,1.37,0,0,0,1.57,0l18.82-12.56A2,2,0,0,0,169.65,204.69Z" class="cls-9"></path><path d="M175.75,193.2l-40.69-27.41a1.35,1.35,0,0,0-1.56,0l-18.78,12.65a2,2,0,0,0,0,3.16l8.85,6a2,2,0,0,1-.13,3.24,14.11,14.11,0,0,1-5.35,1.61A.82.82,0,0,0,118,194c3.32.8,7.54,1,11-1.61a1.4,1.4,0,0,1,1.64,0L155.4,209a1.37,1.37,0,0,0,1.57,0l18.78-12.65A2,2,0,0,0,175.75,193.2Z" class="cls-6"></path><path d="M182.7,123.61l-32.71-22a1,1,0,0,0-1.17,0l-19.56,13.18a1.49,1.49,0,0,0,0,2.37L138,123a1.44,1.44,0,0,1-.4,2.54,9.46,9.46,0,0,1-2.46.14c-.61,0-.84.93-.29,1.26,2.76,1.68,6.94,3.34,10.2.81h0L162,139.16a1,1,0,0,0,1.17,0L182.7,126A1.48,1.48,0,0,0,182.7,123.61Z" class="cls-10"></path><path d="M184.58,113.93l-32.71-22a1,1,0,0,0-1.18,0l-19.56,13.18a1.49,1.49,0,0,0,0,2.37l8.73,5.88a1.45,1.45,0,0,1-.4,2.54A10.54,10.54,0,0,1,137,116c-.61-.05-.84.92-.29,1.25,2.76,1.68,6.94,3.34,10.2.81h0l16.94,11.41a1,1,0,0,0,1.17,0l19.57-13.18A1.49,1.49,0,0,0,184.58,113.93Z" class="cls-6"></path><path d="M194.18,157.4a5.61,5.61,0,0,1,1.39-.9.6.6,0,0,0-.12-1.1,13,13,0,0,0-6.1.22.87.87,0,0,1-.81-.11l-.39-.26-11.81-8a.9.9,0,0,0-1,0l-19.76,13.32a1.29,1.29,0,0,0,0,2.07l46.05,31.16a.92.92,0,0,0,1,0l19.85-13.38a1.3,1.3,0,0,0,0-2.08l-28.19-19A1.32,1.32,0,0,1,194.18,157.4Z" class="cls-11"></path><path d="M195.92,149.19a5.52,5.52,0,0,1,1.4-.91.6.6,0,0,0-.13-1.1,13,13,0,0,0-6.1.22.9.9,0,0,1-.81-.1l-.39-.26-11.8-8a.92.92,0,0,0-1,0L157.3,152.39a1.32,1.32,0,0,0,0,2.08l46,31.15a.89.89,0,0,0,1,0l19.85-13.37a1.3,1.3,0,0,0,0-2.08l-28.19-19A1.31,1.31,0,0,1,195.92,149.19Z" class="cls-5"></path><ellipse ry="14.25" rx="21.15" cy="148.72" cx="107.89" class="cls-12"></ellipse><ellipse ry="14.25" rx="21.15" cy="138.16" cx="113.26" class="cls-5"></ellipse><ellipse ry="1.24" rx="1.84" cy="130.21" cx="114.09" class="cls-6"></ellipse><ellipse ry="1.24" rx="1.84" cy="135.7" cx="123.18" class="cls-6"></ellipse><path d="M102,133.89,117,144s-7.8,2.14-13.15-1.83S102,133.89,102,133.89Z" class="cls-6"></path></g><g id="boy"><path d="M62.8,182.82s14.47-4.65,15.45,2.35-.66,10,5.86,12.38S83,204.89,83,204.89L58,188.11Z" class="cls-13"></path><polygon points="80.1 151.77 78.3 166.94 60.77 155.13 62.96 140.37 80.1 151.77" class="cls-14"></polygon><polygon points="80.1 151.77 78.3 166.94 60.77 155.13 62.96 140.37 80.1 151.77" class="cls-15"></polygon><path d="M63.36,141.19l16,10.59-1.67,14-16.35-11,2-13.6m-.1-.25-2.08,13.93L77.79,166l1.7-14.32L63.26,140.94Z" class="cls-16"></path><path d="M50,166.94s18.54-.58,21.39,1.08,1.79,22.12,1.79,22.12a1.43,1.43,0,0,0,.88,1.63c1.16.54,3,.95,2.62,1.76s-1.75,1.49-3.9.81-4.07.21-4.18-1.83-1.86-10-3-10.51S44.26,176.42,50,166.94Z" class="cls-17"></path><path d="M80.21,196.83a21.62,21.62,0,0,0,2.47,1.88c1.19.75,2.34,1.81.35,2.43s-3.44-.89-4.1-.92-2.88-.57-2.85-1.33S75.68,196.54,80.21,196.83Z" class="cls-18"></path><path d="M80.4,197.16s.36.4-3.05.39l-.89,0s-1.33-12.65-2.28-14-8,5.73-19.71,6.21S30.05,182.48,32,178.29a1.86,1.86,0,0,1,.1-.2c2.42-4.15,19.5-2.3,19.5-2.3s20.42-3.42,24.85-2.95C81.89,173.42,80.8,190.6,80.4,197.16Z" class="cls-19"></path><path d="M77.35,197.55l-.89,0s-1.33-12.65-2.28-14-8,5.73-19.71,6.21S30.05,182.48,32,178.29a6.18,6.18,0,0,1,2.82-.9l3.58,2.34s4.7,8.44,18.74,5.44,18-5,19.54-3.2S77.35,197.55,77.35,197.55Z" class="cls-20"></path><polygon points="78.25 166.94 65.11 175.79 47.58 163.99 60.73 155.13 78.25 166.94" class="cls-21"></polygon><polygon points="75.16 165.49 64.77 172.49 50.91 163.15 61.3 156.15 75.16 165.49" class="cls-22"></polygon><path d="M72.77,163.8c.26.11.37-.21.31-.41s-.73-.35-.73-.35a.31.31,0,0,1,.34,0c.2.1.67-.13.32-.44s-.66-.55-1-.48a1.42,1.42,0,0,1-.76-.09c.33-.42.3-.92-.12-.59s-.59-.18-1.5-.2-1.89,1.92-1.89,1.92-.64,3.55.3,4.5,1.91-.11,2.43-.72,1.3-1.18,1.73-1,.86-.36.67-.55a4.07,4.07,0,0,0-.84-.47,1,1,0,0,1,.57-.11c.3,0,.57-.18.45-.43a1.91,1.91,0,0,0-.63-.55A.52.52,0,0,1,72.77,163.8Z" class="cls-23"></path><path d="M61.93,160.51a1.87,1.87,0,0,0-.66-.39.52.52,0,0,1,.37,0c.26.06.33-.21.26-.37s-.74-.22-.74-.22a.33.33,0,0,1,.33-.05c.2.06.63-.18.26-.4a1.31,1.31,0,0,0-1-.29,1.48,1.48,0,0,1-.74,0c.28-.38.2-.79-.17-.48s-.59-.08-1.47,0-1.63,1.81-1.63,1.81-.3,3,.7,3.72,1.83-.3,2.27-.87,1.15-1.12,1.57-1.06.8-.39.59-.53a4,4,0,0,0-.85-.3,1.13,1.13,0,0,1,.54-.15C61.83,160.92,62.07,160.7,61.93,160.51Z" class="cls-23"></path><path d="M48.89,134.11a10.41,10.41,0,0,1-3.09.68h-.11l-.31,2-.21,1.3-3.08-.88-.87-.07s-.06-.3-.15-.82a3.1,3.1,0,0,1-.7-.13,11.46,11.46,0,0,1,.39-2c-.47-3.64-.88-9.69,1-12.49,2.85-4.17,5.72-2.57,6.33-3.63s1.52-1.62,1.46-.47.4,3.7.64,6.66C50.23,124.29,51.39,133.29,48.89,134.11Z" class="cls-23"></path><path d="M32.61,146.4s-2.94,11.19-1.95,12.28A21.35,21.35,0,0,0,34,161.22Z" class="cls-22"></path><path d="M69.65,167.71s-3.6,1.27-9.92,3.13a3.33,3.33,0,0,1-3.64-1.36c-1-1.3-2.11-2.94-2.78-3.95l-.28-.45s.46,7.18,2.53,9.29a1.88,1.88,0,0,1,.21,1.81c-.36.81-1.45,1.74-4.22,2.41-6.25,1.51-16.74,3.57-20.43.16l1.49-32.34s.6-4.93,2.93-7.74c1.56-1.88,2.45-2.69,3.94-3,5.25.67,13.9,3.21,16.21,7.65,2.73,5.23,2.79,19.4,6.1,20.08a11.07,11.07,0,0,0,6.19-.65s2.49.21,1.77,4.19C69.75,166.94,70.36,166.61,69.65,167.71Z" class="cls-6"></path><path d="M54,113.61h0a10.92,10.92,0,0,0-2-3.47,7.35,7.35,0,0,1,0,3s-.69-3.43-3.48-3.9a2.92,2.92,0,0,1,.87,2.95s-.79-2-2.27-2l.19,1.34a12.05,12.05,0,0,0-4.65.92h0c-7.39,2-5.77,9.91-5.59,10.73s-2,2.8-1.61,5.64,4.67,5.49,4.67,5.49h0c.37.37.67.38,1.07-.12a9.71,9.71,0,0,0,1.48-3s-1.09-2.37-.72-3.46,1.75-1.18,1.94.47c0,.59.06,1.09.25,1.16.5.18.63-3.66,3.12-4.78s4.31.53,6.8-3S54,113.61,54,113.61Z" class="cls-24"></path><path d="M45.8,134.79h-.11l-.31,2c-1.28-.49-1.81-3.61-1.81-3.61A12.81,12.81,0,0,0,45.8,134.79Z" class="cls-25"></path><path d="M55.77,176.18a5.11,5.11,0,0,1-2.51.74C49,177.25,50.18,172,48.67,162c-1.46-9.74,2.06-16.11,2.26-16.46-.1.22-1.12,2.72-.37,8.86a53.78,53.78,0,0,0,2.75,11.13l-.28-.45s.46,7.18,2.53,9.29A1.88,1.88,0,0,1,55.77,176.18Z" class="cls-5"></path></g><g id="girl"><path d="M254.23,121.16s4.35,1.42,1,9.09-13.17,10.28-16.17,15.59-4.75,9-5.62,12.13-2.3,7.3-5.77,7.06-7.13,1.62-9.92-.94,6.1-1.78,8.54-7.36,3.93-15,3.93-15-2.83,8.66-6.34,9.87-5.27,2.44-6.83,2.23-2.27-2.2,1.39-4.25,6.63-13.06,7.85-16.71,17-14.44,17-14.44Z" class="cls-26"></path><path d="M240.21,71.14s-2.38-4.62,3.13-6.73S252,67,252.71,69.05s1.14,4.4,3,6.4c2.86,3.06,12.07,9.8,10.36,24.55s-23.79,20.52-35.81,5.15,2-14.81,6-18.36S243.06,73.69,240.21,71.14Z" class="cls-14"></path><path d="M254.66,110.69s7.5-2.28,8.54-13.26-3.81-14.36-6.26-17.14A34.74,34.74,0,0,0,250.59,75l-1.42,5.25Z" class="cls-27"></path><path d="M243.17,72.92a42,42,0,0,1-4.36,13.81c-3.76,7.32-9.14,5.48-9.52,11s1.42,13.63,9.81,6.78S248,82.46,248,82.46s.65-4.27-.47-5.5l-4.39-4" class="cls-28"></path><path d="M224.26,157.39s-3.93,2.15-5.07,2.74-2.22.37-2.09,1.11,2.41,2.89,4.56,2.15,2.85-1.48,3.87-1.48a1.82,1.82,0,0,0,1.77-2.3C226.92,158.28,224.26,157.39,224.26,157.39Z" class="cls-18"></path><path d="M242.77,111.75s-10.74,8-13.31,10.1-4.25,4.33-4.56,5.29-3.56,15.53-3.94,17.38a12.43,12.43,0,0,1-.63,2.37,4.51,4.51,0,0,0,3.8,1.85s3.11-7.69,5.08-14.5,9.82-7.91,12.8-9.84,7.67-7.32,6.66-9.17S242.77,111.75,242.77,111.75Z" class="cls-18"></path><path d="M255.71,115.59a16.61,16.61,0,0,1,.42,7.69,13.25,13.25,0,0,1-4.7,7.89c-7.52,6.21-10,5.1-13.6,8.32s-6.09,14.21-8,17.09-2.85,4.11-2.85,4.11a6.93,6.93,0,0,1-3.81-2.67s5-13,7.08-22.52,10.52-10.65,18-19.09S255.71,115.59,255.71,115.59Z" class="cls-24"></path><path d="M231.31,106.54a1.86,1.86,0,0,0-1.05-1.39c-.9-.33-2.8-.44-3.61-1.33,0,0-.33.78.67,1.36a4,4,0,0,1-2.76-.31c-1.57-.72.1.84,1.14,1.22s.05,1.5,2.48,2.72S232,111,231.31,106.54Z" class="cls-23"></path><path d="M256.3,105.24a55.77,55.77,0,0,0,0,13s-5.52.89-9.61-1.11a26.55,26.55,0,0,1-2.7-1.55c-2.67-1.75-4.6-3.65-5.76-4.33-1.52-.89-6.18-4.11-6.18-4.11s-.88-2.67-.09-3.07a33.84,33.84,0,0,0,5.7-1c.76-.44,1-2.29,1.84-6.88a38.09,38.09,0,0,1,.87-3.83c3.79-12,7.68-9.85,7.68-9.85s1.22-.38,1.42-.85a9.59,9.59,0,0,1,8.22,7.58C258.75,93.41,256.88,100,256.3,105.24Z" class="cls-29"></path><path d="M242.42,100.34a19.25,19.25,0,0,0-1.28-4.94c-.95-2.15,2.2-6.8,2.2-6.8-3.62,3.43-3.36,11.09-3.6,13.46s-4.38,2.67-7.05,2.74-.66,2.29-.66,2.29.73.51,4,.33a4.35,4.35,0,0,0,1.61.93c3.61,1.48,5.32.59,5.32.59s0-7.35-.54-8.6Z" class="cls-30"></path><path d="M256.9,91s-2.4,16.2-5.51,20.79c-2.21,3.27-5,4-7.42,3.7-2.67-1.75-4.6-3.65-5.76-4.33,0,0,9.45-2.65,11.16-10S255.19,88.75,256.9,91Z" class="cls-31"></path><path d="M245.06,106.82s3.36-18.35,7.35-20.91c0,0-1.59.4-4.38,6.46s-3.48,12.85-6.21,14.45l-2.72,1.6,3.86.52Z" class="cls-32"></path><path d="M254.47,85.23s-3.61-.19-5.42,5.84-5,15-6.28,15.91A26.14,26.14,0,0,1,231,105.87s-1.33,2.66-.38,4.16c0,0,12.11,4.19,15.72,2.63s7.65-12.2,8.31-13.93C255.6,96.18,259.38,88.52,254.47,85.23Z" class="cls-29"></path><path d="M228.37,105.09s-7.28-3.32-8-3.77-1.38.45-1.05.83a60.17,60.17,0,0,0,8,4.17C227.8,106.26,228.37,105.09,228.37,105.09Z" class="cls-18"></path><path d="M250.14,83.79c-.13-2.64-.13-4.4-.12-4.62a.56.56,0,0,1,.24.42,7.62,7.62,0,0,0,.28,1.62A5.87,5.87,0,0,1,250.14,83.79Z" class="cls-24"></path><path d="M250.84,81.85a.66.66,0,0,1,0,.69l-.77,1.29a4.07,4.07,0,0,1-1,1.34c-1.81,1.67-2.19,0-2.19,0V80.29a2.77,2.77,0,0,1-1.62,0c-2-.33-2.36-5.38-2.39-8a2.13,2.13,0,0,0,1.16.4c.57.71,1.59,1.12,1.14.67s-.73-1.74-.16-1,2,1.3,1.62.78-.35-1.22.16-.48,1.58,1,1.2.66-.79-1.66-.53-1.22,1.52,1.08,1.83,1.37.25,2.78.25,2.78a2.34,2.34,0,0,1,1-1.22c.73-.45.6,1.81.35,2.44a14.31,14.31,0,0,1-.92,1.66v0a.56.56,0,0,1,.24.42,7.62,7.62,0,0,0,.28,1.62A2.38,2.38,0,0,0,250.84,81.85Z" class="cls-23"></path><path d="M221.28,145.85a17.44,17.44,0,0,1-4.19,3.26c-2,.89-1.39,2.88.89,2.37s2.92-1.19,3.94-1.26,2.66-.22,2-2.44A2.45,2.45,0,0,0,221.28,145.85Z" class="cls-18"></path><path d="M247,81.61V80.29A4,4,0,0,0,248.41,79S248.71,81.5,247,81.61Z" class="cls-25"></path></g><g id="convo"><polygon points="167.93 195.29 132.87 171.86 133.97 171.16 169.01 194.58 167.93 195.29" class="cls-5"></polygon><polygon points="163.01 197.97 127.95 174.54 129.06 173.84 164.09 197.25 163.01 197.97" class="cls-5"></polygon><polygon points="158.08 201.41 123.02 177.98 124.12 177.28 159.16 200.7 158.08 201.41" class="cls-5"></polygon><polygon points="211.74 170.04 176.68 146.6 177.79 145.9 212.82 169.32 211.74 170.04" class="cls-6"></polygon><polygon points="206.82 172.71 171.76 149.28 172.87 148.58 207.91 172 206.82 172.71" class="cls-6"></polygon><polygon points="201.89 176.16 166.83 152.72 167.94 152.02 202.97 175.44 201.89 176.16" class="cls-6"></polygon><polygon points="177.64 116.13 148.84 96.88 149.75 96.31 178.53 115.55 177.64 116.13" class="cls-5"></polygon><polygon points="173.6 118.33 144.8 99.08 145.71 98.5 174.49 117.74 173.6 118.33" class="cls-5"></polygon><polygon points="169.55 121.16 140.75 101.91 141.66 101.33 170.44 120.57 169.55 121.16" class="cls-5"></polygon></g><g><path d="M124.63,40.54a2.3,2.3,0,0,1-1.55-.63,3.28,3.28,0,0,1-.43-4.13,34.56,34.56,0,0,1,6.76-6.67A29.75,29.75,0,0,1,145,22.72c9-.71,17.67,3.58,25.76,12.77a3.3,3.3,0,0,1,.05,4.16,2.27,2.27,0,0,1-3.56.05c-7-7.91-14.29-11.65-21.74-11.13a25.42,25.42,0,0,0-13.17,5.35,31.16,31.16,0,0,0-5.7,5.49A2.39,2.39,0,0,1,124.63,40.54Zm7.74,6.35c.57-.77,5.87-7.58,13.48-8,5.19-.28,10.42,2.47,15.55,8.19A2.28,2.28,0,0,0,165,47a3.28,3.28,0,0,0-.08-4.16C158.72,36,152.23,32.67,145.62,33c-9.5.52-15.87,8.43-17.05,10a3.29,3.29,0,0,0,.24,4.15,2.34,2.34,0,0,0,1.65.72A2.38,2.38,0,0,0,132.37,46.89Zm6,7.51c.49-.95,3.44-4.46,7.35-4.95,3.32-.42,6.64,1.41,9.88,5.45a2.28,2.28,0,0,0,3.56.14,3.3,3.3,0,0,0,.12-4.16c-5.45-6.79-10.67-7.71-14.09-7.28-5.78.72-10,5.56-11.14,7.78a3.21,3.21,0,0,0,.87,4,2.18,2.18,0,0,0,1.29.42A2.47,2.47,0,0,0,138.35,54.4Zm8.52.78c-2.67,0-4.84,2.52-4.84,5.64s2.17,5.64,4.84,5.64,4.84-2.52,4.84-5.64S149.54,55.18,146.87,55.18Z" class="cls-7"></path><path d="M124.63,40.54a2.3,2.3,0,0,1-1.55-.63,3.28,3.28,0,0,1-.43-4.13,34.56,34.56,0,0,1,6.76-6.67A29.75,29.75,0,0,1,145,22.72c9-.71,17.67,3.58,25.76,12.77a3.3,3.3,0,0,1,.05,4.16,2.27,2.27,0,0,1-3.56.05c-7-7.91-14.29-11.65-21.74-11.13a25.42,25.42,0,0,0-13.17,5.35,31.16,31.16,0,0,0-5.7,5.49A2.39,2.39,0,0,1,124.63,40.54Zm7.74,6.35c.57-.77,5.87-7.58,13.48-8,5.19-.28,10.42,2.47,15.55,8.19A2.28,2.28,0,0,0,165,47a3.28,3.28,0,0,0-.08-4.16C158.72,36,152.23,32.67,145.62,33c-9.5.52-15.87,8.43-17.05,10a3.29,3.29,0,0,0,.24,4.15,2.34,2.34,0,0,0,1.65.72A2.38,2.38,0,0,0,132.37,46.89Zm6,7.51c.49-.95,3.44-4.46,7.35-4.95,3.32-.42,6.64,1.41,9.88,5.45a2.28,2.28,0,0,0,3.56.14,3.3,3.3,0,0,0,.12-4.16c-5.45-6.79-10.67-7.71-14.09-7.28-5.78.72-10,5.56-11.14,7.78a3.21,3.21,0,0,0,.87,4,2.18,2.18,0,0,0,1.29.42A2.47,2.47,0,0,0,138.35,54.4Zm8.52.78c-2.67,0-4.84,2.52-4.84,5.64s2.17,5.64,4.84,5.64,4.84-2.52,4.84-5.64S149.54,55.18,146.87,55.18Z" class="cls-33"></path><path d="M240.22,51.9c0-3.63-2.55-6.4-5.7-6.4s-5.7,2.94-5.7,6.57,2.55,6.58,5.7,6.58S240.22,55.54,240.22,51.9Z" class="cls-34"></path><path d="M30.39,135.44c0-5-3.49-8.76-7.79-8.76s-7.8,4-7.8,9,3.49,9,7.8,9S30.39,140.4,30.39,135.44Z" class="cls-35"></path><path d="M264.77,68.66a2.65,2.65,0,0,0-2.52-2.82,2.93,2.93,0,0,0,0,5.8A2.8,2.8,0,0,0,264.77,68.66Z" class="cls-36"></path><path d="M34.47,111.17A2.67,2.67,0,0,0,32,108.34a2.93,2.93,0,0,0,0,5.81A2.81,2.81,0,0,0,34.47,111.17Z" class="cls-37"></path></g></g></g></svg>