<svg xmlns="http://www.w3.org/2000/svg" xmlns:xlink="http://www.w3.org/1999/xlink" width="200" height="200" viewBox="0 0 200 200">
  <defs>
    <linearGradient id="linear-gradient" y1="0.5" x2="1" y2="0.5" gradientUnits="objectBoundingBox">
      <stop offset="0" stop-color="#eef2fe"/>
      <stop offset="1" stop-color="#cdddfc"/>
    </linearGradient>
    <linearGradient id="linear-gradient-2" x1="0.215" y1="0.447" x2="1.23" y2="0.447" gradientUnits="objectBoundingBox">
      <stop offset="0" stop-color="#eef2fe"/>
      <stop offset="0.542" stop-color="#cdddfc"/>
      <stop offset="1" stop-color="#cdddfc"/>
    </linearGradient>
    <linearGradient id="linear-gradient-3" x1="-0.893" y1="0.566" x2="0.071" y2="0.569" gradientUnits="objectBoundingBox">
      <stop offset="0" stop-color="#b5c3e0"/>
      <stop offset="1" stop-color="#fcfdff"/>
    </linearGradient>
    <linearGradient id="linear-gradient-4" y1="0.5" x2="1" y2="0.5" gradientUnits="objectBoundingBox">
      <stop offset="0" stop-color="#ffb855"/>
      <stop offset="1" stop-color="#fff"/>
    </linearGradient>
    <linearGradient id="linear-gradient-5" y1="0.5" x2="1" y2="0.5" gradientUnits="objectBoundingBox">
      <stop offset="0" stop-color="#ff7f53"/>
      <stop offset="0.994" stop-color="#ffb365"/>
    </linearGradient>
    <linearGradient id="linear-gradient-6" x1="0.5" x2="0.5" y2="1" gradientUnits="objectBoundingBox">
      <stop offset="0.03" stop-color="#92c1fc" stop-opacity="0.4"/>
      <stop offset="0.25" stop-color="#92c1fc" stop-opacity="0.2"/>
      <stop offset="0.8" stop-color="#187fc4" stop-opacity="0"/>
    </linearGradient>
  </defs>
  <g id="暂无消息" transform="translate(-88 -236)">
    <path id="路径_9155" data-name="路径 9155" d="M0,0H200V200H0Z" transform="translate(88 236)" fill="#7a7a7a" opacity="0"/>
    <g id="组_4767" data-name="组 4767" transform="translate(-1.751 -55.33)">
      <path id="路径_9137" data-name="路径 9137" d="M237.5,319.3c15.917-2.114,33.651,32.276,39.565,76.82s-2.2,82.347-18.153,84.465c-13.808,1.834-28.936-23.666-36.593-59.465l27.521-8.867c3.528-.468,5.652-6.342,4.748-13.149s-4.471-11.943-8.016-11.472L217.7,386.31C215.753,349.77,223.7,321.171,237.5,319.3Z" fill="url(#linear-gradient)"/>
      <path id="路径_9138" data-name="路径 9138" d="M246.2,387.76c-3.5.454-5.608,6.355-4.725,13.146s4.431,11.938,7.927,11.484l-27.14,8.739c-1.165-5.547-2.151-11.351-2.93-17.344s-1.311-11.857-1.6-17.517Z" fill="url(#linear-gradient-2)"/>
      <path id="路径_9139" data-name="路径 9139" d="M254.591,399.107c.9,6.789-1.321,12.694-5.015,13.184s-7.416-4.607-8.32-11.413,1.357-12.717,5.051-13.207C249.982,387.183,253.69,392.318,254.591,399.107Z" fill="url(#linear-gradient-3)"/>
      <path id="路径_9140" data-name="路径 9140" d="M218.487,329.06c3.014-5.017,6.7-8.1,10.935-8.667l8.083-1.073c-13.808,1.834-21.754,30.433-19.807,66.972.3,5.66.844,11.522,1.64,17.514s1.8,11.792,2.986,17.334c7.657,35.8,22.785,61.3,36.594,59.466l-8.083,1.073c-4.237.563-8.665-1.411-12.818-5.513-11.695-11.327-22.4-38.533-26.742-71.272s-1.111-61.759,7.2-75.76Z" fill="#4084f2"/>
      <path id="路径_9141" data-name="路径 9141" d="M147.078,443.486a14.581,14.581,0,0,0-3.458-.37c-6.506.863-13.53-11.282-15.636-27.146s1.488-29.419,8.011-30.285a21.963,21.963,0,0,0,4.9-2.111c-5.173,3.7-8.373,16.822-6.422,31.517s7.9,26.46,14.092,28.7A11.523,11.523,0,0,0,147.078,443.486Z" fill="#4084f2"/>
      <path id="路径_9142" data-name="路径 9142" d="M100.9,397.956c-1.912,5.3-2.572,12.968-1.4,21.831a49.842,49.842,0,0,0,6.383,19.68c-6.49.844-11.764-2.876-13.863-18.687C89.922,404.951,94.429,398.815,100.9,397.956Z" fill="url(#linear-gradient-4)"/>
      <path id="路径_9143" data-name="路径 9143" d="M107.684,390.778c9.2-1.78,11.7-2.256,28.349-5.08-6.506.863-10.117,14.42-8.011,30.285s9.112,28.012,15.635,27.146l-8.059.709-3.83.364h0c-7.467.685-10.137.949-16.8,1.419-3.137.417-6.347-1.881-9.078-6.154a49.842,49.842,0,0,1-6.383-19.68c-1.177-8.863-.526-16.6,1.4-21.831C102.435,393.766,104.79,391.126,107.684,390.778Z" fill="#74a0fa"/>
      <path id="路径_9144" data-name="路径 9144" d="M140.914,383.607c17-9.148,64.433-44.559,77.554-54.418-8.314,14-11.553,43-7.2,75.761s15.047,59.945,26.743,71.271c-14.428-5.823-64.973-25.809-86.063-31.541l-1.869-.491-1.471-.346c-6.2-2.244-12.141-14.009-14.092-28.7S135.754,387.268,140.914,383.607Z" fill="#74a0fa"/>
      <path id="路径_9145" data-name="路径 9145" d="M153,365l.678,6.315a9.131,9.131,0,0,0,5.047,8.167l15.322,7.661a3.334,3.334,0,0,1,1.828,2.668l2.15,22.723a.994.994,0,0,0,.99.9h5.672a.994.994,0,0,0,.994-.994V383.2a2.644,2.644,0,0,0-1.191-2.208l-10.853-7.132-.315-1.743,6.165-2.042,11.333,7.658a3.333,3.333,0,0,1,1.465,2.632l.931,23.9a.994.994,0,0,0,.946.954l5.355.255a.993.993,0,0,0,1.038-.913l2.2-27.329a2.641,2.641,0,0,0-1.294-2.489l-21.973-12.926Z" fill="#5f91ed"/>
      <path id="路径_9146" data-name="路径 9146" d="M179.831,415.328s-1.893.688-1.549,5.161c0,1.377,9.636,8.6,15.83,7.227,1.032-.344,1.376-3.1.688-3.441-.871-.436-7.227-6.883-8.6-8.259a1.33,1.33,0,0,0-1.2-.051Z" fill="#0f244d"/>
      <rect id="矩形_4405" data-name="矩形 4405" width="4.99" height="7.227" rx="2.407" transform="translate(179.831 411.714)" fill="#ffe6ca"/>
      <path id="路径_9147" data-name="路径 9147" d="M194.628,407.413s-1.893.688-1.549,5.162c0,1.376,9.636,8.6,15.83,7.226,1.032-.344,1.376-3.1.688-3.441-.87-.435-7.226-6.882-8.6-8.259a1.328,1.328,0,0,0-1.2-.05Z" fill="#0f244d"/>
      <rect id="矩形_4406" data-name="矩形 4406" width="4.99" height="7.227" rx="2.407" transform="translate(194.628 403.8)" fill="#ffe6ca"/>
      <path id="矩形_4407" data-name="矩形 4407" d="M14.327,0h4.725A14.327,14.327,0,0,1,33.38,14.327V40.538a2.133,2.133,0,0,1-2.133,2.133H2.133A2.133,2.133,0,0,1,0,40.538V14.327A14.327,14.327,0,0,1,14.327,0Z" transform="translate(151.785 323.104)" fill="url(#linear-gradient-5)"/>
      <path id="路径_9148" data-name="路径 9148" d="M154.366,343.923h7.571v9.291s11.011,12.044,12.388,12.732,4.818-12.732,5.162-13.42,0-13.077,0-13.077h5.678v16.69a15.714,15.714,0,0,0-4.99,9.119,5.532,5.532,0,0,0,.523,4.229,1.532,1.532,0,0,1,.222.733c.045,1.12-.385,3.7-5.563,2.609-6.538-1.377-19.615-15.141-19.615-15.141l-1.376-13.421" fill="#ffe6cc"/>
      <rect id="矩形_4408" data-name="矩形 4408" width="7.571" height="9.635" rx="3.785" transform="translate(164.173 315.877)" fill="#eaccb0"/>
      <path id="路径_9149" data-name="路径 9149" d="M179.315,307.618S180,323.792,171.4,323.1s-9.98-12.733-9.98-12.733l4.474-5.506Z" fill="#f9e5d4"/>
      <path id="路径_9150" data-name="路径 9150" d="M167.27,307.274s4.13,4.13,14.109.688c0,0-.516-14.281-12.9-13.248s-11.7,12.388-7.571,22.023C161.592,317.77,164,306.758,167.27,307.274Z" fill="#0f244d"/>
      <path id="路径_9151" data-name="路径 9151" d="M99.43,478s33.7-55.832,67.065-25.769c4.294,4.3,14.536-5.616,22.795,0,2.643.991,18.17-16.188,33.7,8.59S216.38,478,216.38,478Z" fill="url(#linear-gradient-6)"/>
      <path id="路径_9152" data-name="路径 9152" d="M117,323.385s8.339-13.816,16.6-6.377c1.063,1.063,3.6-1.389,5.641,0,.654.246,4.5-4.005,8.339,2.126s-1.635,4.251-1.635,4.251Z" fill="url(#linear-gradient-6)"/>
      <path id="路径_9153" data-name="路径 9153" d="M92.942,346s13.59-22.517,27.047-10.392c1.732,1.732,5.862-2.265,9.193,0,1.066.4,7.328-6.529,13.59,3.464S140.107,346,140.107,346Z" fill="url(#linear-gradient-6)"/>
      <path id="路径_9154" data-name="路径 9154" d="M188.942,329s25.6-42.413,50.946-19.575c3.263,3.262,11.043-4.267,17.317,0,2.007.753,13.8-12.3,25.6,6.525S277.784,329,277.784,329Z" fill="url(#linear-gradient-6)"/>
      <circle id="椭圆_229" data-name="椭圆 229" cx="8.5" cy="8.5" r="8.5" transform="translate(265 471)" fill="url(#linear-gradient-6)"/>
    </g>
  </g>
</svg>
